<svg width="275" height="250" viewBox="0 0 275 221" fill="none" xmlns="http://www.w3.org/2000/svg">
<rect width="275" height="150" fill="white"/>
<path d="M91.2734 89.7461L91.4023 95.043H90.9219C90.6953 93.7148 90.1367 92.6484 89.2461 91.8438C88.3633 91.0312 87.4062 90.625 86.375 90.625C85.5781 90.625 84.9453 90.8398 84.4766 91.2695C84.0156 91.6914 83.7852 92.1797 83.7852 92.7344C83.7852 93.0859 83.8672 93.3984 84.0312 93.6719C84.2578 94.0391 84.6211 94.4023 85.1211 94.7617C85.4883 95.0195 86.3359 95.4766 87.6641 96.1328C89.5234 97.0469 90.7773 97.9102 91.4258 98.7227C92.0664 99.5352 92.3867 100.465 92.3867 101.512C92.3867 102.84 91.8672 103.984 90.8281 104.945C89.7969 105.898 88.4844 106.375 86.8906 106.375C86.3906 106.375 85.918 106.324 85.4727 106.223C85.0273 106.121 84.4688 105.93 83.7969 105.648C83.4219 105.492 83.1133 105.414 82.8711 105.414C82.668 105.414 82.4531 105.492 82.2266 105.648C82 105.805 81.8164 106.043 81.6758 106.363H81.2422V100.363H81.6758C82.0195 102.051 82.6797 103.34 83.6562 104.23C84.6406 105.113 85.6992 105.555 86.832 105.555C87.707 105.555 88.4023 105.316 88.918 104.84C89.4414 104.363 89.7031 103.809 89.7031 103.176C89.7031 102.801 89.6016 102.438 89.3984 102.086C89.2031 101.734 88.9023 101.402 88.4961 101.09C88.0898 100.77 87.3711 100.355 86.3398 99.8477C84.8945 99.1367 83.8555 98.5312 83.2227 98.0312C82.5898 97.5312 82.1016 96.9727 81.7578 96.3555C81.4219 95.7383 81.2539 95.0586 81.2539 94.3164C81.2539 93.0508 81.7188 91.9727 82.6484 91.082C83.5781 90.1914 84.75 89.7461 86.1641 89.7461C86.6797 89.7461 87.1797 89.8086 87.6641 89.9336C88.0312 90.0273 88.4766 90.2031 89 90.4609C89.5312 90.7109 89.9023 90.8359 90.1133 90.8359C90.3164 90.8359 90.4766 90.7734 90.5938 90.6484C90.7109 90.5234 90.8203 90.2227 90.9219 89.7461H91.2734ZM104.797 100.586L109.109 90.1094H115.578V90.543H115.062C114.594 90.543 114.219 90.625 113.938 90.7891C113.742 90.8984 113.586 91.082 113.469 91.3398C113.383 91.5273 113.34 92.0156 113.34 92.8047V103.281C113.34 104.094 113.383 104.602 113.469 104.805C113.555 105.008 113.73 105.188 113.996 105.344C114.262 105.492 114.617 105.566 115.062 105.566H115.578V106H107.281V105.566H107.797C108.266 105.566 108.641 105.484 108.922 105.32C109.117 105.211 109.273 105.023 109.391 104.758C109.477 104.57 109.52 104.078 109.52 103.281V91.5039L103.426 106H103.145L96.957 91.6094V102.801C96.957 103.582 96.9766 104.062 97.0156 104.242C97.1172 104.633 97.3359 104.953 97.6719 105.203C98.0156 105.445 98.5508 105.566 99.2773 105.566V106H93.8398V105.566H94.0039C94.3555 105.574 94.6836 105.52 94.9883 105.402C95.293 105.277 95.5234 105.113 95.6797 104.91C95.8359 104.707 95.957 104.422 96.043 104.055C96.0586 103.969 96.0664 103.57 96.0664 102.859V92.8047C96.0664 92 96.0234 91.5 95.9375 91.3047C95.8516 91.1016 95.6758 90.9258 95.4102 90.7773C95.1445 90.6211 94.7891 90.543 94.3438 90.543H93.8398V90.1094H100.332L104.797 100.586ZM126.008 101.477H120.395L119.727 103.023C119.508 103.539 119.398 103.965 119.398 104.301C119.398 104.746 119.578 105.074 119.938 105.285C120.148 105.41 120.668 105.504 121.496 105.566V106H116.211V105.566C116.781 105.48 117.25 105.246 117.617 104.863C117.984 104.473 118.438 103.672 118.977 102.461L124.66 89.7812H124.883L130.613 102.812C131.16 104.047 131.609 104.824 131.961 105.145C132.227 105.387 132.602 105.527 133.086 105.566V106H125.398V105.566H125.715C126.332 105.566 126.766 105.48 127.016 105.309C127.188 105.184 127.273 105.004 127.273 104.77C127.273 104.629 127.25 104.484 127.203 104.336C127.188 104.266 127.07 103.973 126.852 103.457L126.008 101.477ZM125.609 100.609L123.242 95.1367L120.805 100.609H125.609ZM139.742 98.7578V103.211C139.742 104.07 139.793 104.613 139.895 104.84C140.004 105.059 140.191 105.234 140.457 105.367C140.723 105.5 141.219 105.566 141.945 105.566V106H133.812V105.566C134.547 105.566 135.043 105.5 135.301 105.367C135.566 105.227 135.75 105.047 135.852 104.828C135.961 104.609 136.016 104.07 136.016 103.211V92.8984C136.016 92.0391 135.961 91.5 135.852 91.2812C135.75 91.0547 135.566 90.875 135.301 90.7422C135.035 90.6094 134.539 90.543 133.812 90.543V90.1094H141.195C143.117 90.1094 144.523 90.2422 145.414 90.5078C146.305 90.7734 147.031 91.2656 147.594 91.9844C148.156 92.6953 148.438 93.5312 148.438 94.4922C148.438 95.6641 148.016 96.6328 147.172 97.3984C146.633 97.8828 145.879 98.2461 144.91 98.4883L148.73 103.867C149.23 104.562 149.586 104.996 149.797 105.168C150.117 105.41 150.488 105.543 150.91 105.566V106H145.906L140.785 98.7578H139.742ZM139.742 90.9648V97.9258H140.41C141.496 97.9258 142.309 97.8281 142.848 97.6328C143.387 97.4297 143.809 97.0703 144.113 96.5547C144.426 96.0312 144.582 95.3516 144.582 94.5156C144.582 93.3047 144.297 92.4102 143.727 91.832C143.164 91.2539 142.254 90.9648 140.996 90.9648H139.742ZM165.008 90.1094V94.4102H164.586C164.336 93.418 164.059 92.707 163.754 92.2773C163.449 91.8398 163.031 91.4922 162.5 91.2344C162.203 91.0938 161.684 91.0234 160.941 91.0234H159.758V103.281C159.758 104.094 159.801 104.602 159.887 104.805C159.98 105.008 160.156 105.188 160.414 105.344C160.68 105.492 161.039 105.566 161.492 105.566H162.02V106H153.699V105.566H154.227C154.688 105.566 155.059 105.484 155.34 105.32C155.543 105.211 155.703 105.023 155.82 104.758C155.906 104.57 155.949 104.078 155.949 103.281V91.0234H154.801C153.73 91.0234 152.953 91.25 152.469 91.7031C151.789 92.3359 151.359 93.2383 151.18 94.4102H150.734V90.1094H165.008ZM172.438 98.3594V103.281C172.438 104.094 172.48 104.602 172.566 104.805C172.66 105.008 172.836 105.188 173.094 105.344C173.359 105.492 173.715 105.566 174.16 105.566H174.688V106H166.379V105.566H166.906C167.367 105.566 167.738 105.484 168.02 105.32C168.223 105.211 168.379 105.023 168.488 104.758C168.574 104.57 168.617 104.078 168.617 103.281V92.8281C168.617 92.0156 168.574 91.5078 168.488 91.3047C168.402 91.1016 168.227 90.9258 167.961 90.7773C167.703 90.6211 167.352 90.543 166.906 90.543H166.379V90.1094H174.688V90.543H174.16C173.699 90.543 173.328 90.625 173.047 90.7891C172.844 90.8984 172.684 91.0859 172.566 91.3516C172.48 91.5391 172.438 92.0312 172.438 92.8281V97.3281H178.051V92.8281C178.051 92.0156 178.008 91.5078 177.922 91.3047C177.836 91.1016 177.66 90.9258 177.395 90.7773C177.129 90.6211 176.773 90.543 176.328 90.543H175.812V90.1094H184.109V90.543H183.594C183.125 90.543 182.754 90.625 182.48 90.7891C182.277 90.8984 182.117 91.0859 182 91.3516C181.914 91.5391 181.871 92.0312 181.871 92.8281V103.281C181.871 104.094 181.914 104.602 182 104.805C182.086 105.008 182.262 105.188 182.527 105.344C182.793 105.492 183.148 105.566 183.594 105.566H184.109V106H175.812V105.566H176.328C176.797 105.566 177.168 105.484 177.441 105.32C177.645 105.211 177.805 105.023 177.922 104.758C178.008 104.57 178.051 104.078 178.051 103.281V98.3594H172.438ZM193.824 89.8867C196.355 89.793 198.41 90.5312 199.988 92.1016C201.574 93.6719 202.367 95.6367 202.367 97.9961C202.367 100.012 201.777 101.785 200.598 103.316C199.035 105.348 196.828 106.363 193.977 106.363C191.117 106.363 188.906 105.395 187.344 103.457C186.109 101.926 185.492 100.109 185.492 98.0078C185.492 95.6484 186.293 93.6836 187.895 92.1133C189.504 90.5352 191.48 89.793 193.824 89.8867ZM193.965 90.6367C192.512 90.6367 191.406 91.3789 190.648 92.8633C190.031 94.082 189.723 95.832 189.723 98.1133C189.723 100.824 190.199 102.828 191.152 104.125C191.816 105.031 192.746 105.484 193.941 105.484C194.746 105.484 195.418 105.289 195.957 104.898C196.645 104.398 197.18 103.602 197.562 102.508C197.945 101.406 198.137 99.9727 198.137 98.207C198.137 96.1055 197.941 94.5352 197.551 93.4961C197.16 92.4492 196.66 91.7109 196.051 91.2812C195.449 90.8516 194.754 90.6367 193.965 90.6367ZM218.375 90.1094V94.4102H217.953C217.703 93.418 217.426 92.707 217.121 92.2773C216.816 91.8398 216.398 91.4922 215.867 91.2344C215.57 91.0938 215.051 91.0234 214.309 91.0234H213.125V103.281C213.125 104.094 213.168 104.602 213.254 104.805C213.348 105.008 213.523 105.188 213.781 105.344C214.047 105.492 214.406 105.566 214.859 105.566H215.387V106H207.066V105.566H207.594C208.055 105.566 208.426 105.484 208.707 105.32C208.91 105.211 209.07 105.023 209.188 104.758C209.273 104.57 209.316 104.078 209.316 103.281V91.0234H208.168C207.098 91.0234 206.32 91.25 205.836 91.7031C205.156 92.3359 204.727 93.2383 204.547 94.4102H204.102V90.1094H218.375ZM225.781 91.0234V97.4922H226.098C227.105 97.4922 227.836 97.1758 228.289 96.543C228.742 95.9102 229.031 94.9766 229.156 93.7422H229.602V102.062H229.156C229.062 101.156 228.863 100.414 228.559 99.8359C228.262 99.2578 227.914 98.8711 227.516 98.6758C227.117 98.4727 226.539 98.3711 225.781 98.3711V102.848C225.781 103.723 225.816 104.258 225.887 104.453C225.965 104.648 226.105 104.809 226.309 104.934C226.512 105.059 226.84 105.121 227.293 105.121H228.242C229.727 105.121 230.914 104.777 231.805 104.09C232.703 103.402 233.348 102.355 233.738 100.949H234.172L233.457 106H219.723V105.566H220.25C220.711 105.566 221.082 105.484 221.363 105.32C221.566 105.211 221.723 105.023 221.832 104.758C221.918 104.57 221.961 104.078 221.961 103.281V92.8281C221.961 92.1094 221.941 91.668 221.902 91.5039C221.824 91.2305 221.68 91.0195 221.469 90.8711C221.172 90.6523 220.766 90.543 220.25 90.543H219.723V90.1094H233.023V94.8086H232.578C232.352 93.6602 232.031 92.8359 231.617 92.3359C231.211 91.8359 230.633 91.4688 229.883 91.2344C229.445 91.0938 228.625 91.0234 227.422 91.0234H225.781ZM250.402 100.422L249.805 106H235.695V105.566H236.223C236.684 105.566 237.055 105.484 237.336 105.32C237.539 105.211 237.695 105.023 237.805 104.758C237.891 104.57 237.934 104.078 237.934 103.281V92.8281C237.934 92.0156 237.891 91.5078 237.805 91.3047C237.719 91.1016 237.543 90.9258 237.277 90.7773C237.02 90.6211 236.668 90.543 236.223 90.543H235.695V90.1094H244.168V90.543H243.477C243.016 90.543 242.645 90.625 242.363 90.7891C242.16 90.8984 242 91.0859 241.883 91.3516C241.797 91.5391 241.754 92.0312 241.754 92.8281V102.953C241.754 103.766 241.801 104.285 241.895 104.512C241.988 104.73 242.172 104.895 242.445 105.004C242.641 105.074 243.113 105.109 243.863 105.109H245.188C246.031 105.109 246.734 104.961 247.297 104.664C247.859 104.367 248.344 103.898 248.75 103.258C249.164 102.617 249.555 101.672 249.922 100.422H250.402Z" fill="#03528A"/>
<path d="M75 108.425C75 109.432 74.3817 110.306 73.4394 110.757L50.1783 122.523C49.7072 122.841 49.1183 123 48.5 123C47.8817 123 47.2928 122.841 46.8217 122.523L23.5606 110.757C23.0885 110.534 22.6935 110.198 22.4183 109.787C22.1432 109.376 21.9985 108.905 22 108.425V84.575C22 83.568 22.6183 82.6935 23.5606 82.243L46.8217 70.477C47.2928 70.159 47.8817 70 48.5 70C49.1183 70 49.7072 70.159 50.1783 70.477L73.4394 82.243C74.3817 82.6935 75 83.568 75 84.575V108.425Z" fill="#03528A"/>
<path d="M56.1801 96.6142L56.3707 104.559L55.65 104.56C55.3108 102.568 54.4735 100.968 53.138 99.7616C51.8142 98.5432 50.3788 97.9342 48.832 97.9347C47.6366 97.935 46.6873 98.2576 45.984 98.9023C45.2923 99.5353 44.9464 100.268 44.9461 101.1C44.9459 101.627 45.0688 102.096 45.3147 102.506C45.6544 103.057 46.1991 103.601 46.9489 104.14C47.4996 104.527 48.7708 105.212 50.7627 106.196C53.5513 107.566 55.4317 108.861 56.4039 110.079C57.3644 111.297 57.8444 112.692 57.8439 114.262C57.8432 116.254 57.0633 117.971 55.5042 119.413C53.9568 120.843 51.9878 121.559 49.5972 121.559C48.8472 121.56 48.1383 121.484 47.4703 121.332C46.8024 121.179 45.9646 120.893 44.957 120.471C44.3946 120.237 43.9317 120.12 43.5684 120.12C43.2637 120.12 42.9414 120.237 42.6015 120.472C42.2616 120.706 41.9861 121.064 41.775 121.544L41.1246 121.544L41.1277 112.544L41.7781 112.544C42.2928 115.075 43.2824 117.009 44.7468 118.344C46.2229 119.668 47.8105 120.33 49.5098 120.329C50.8223 120.329 51.8653 119.971 52.639 119.256C53.4244 118.541 53.8173 117.709 53.8176 116.759C53.8178 116.197 53.6657 115.652 53.3612 115.125C53.0684 114.598 52.6174 114.1 52.0082 113.631C51.399 113.151 50.321 112.53 48.7744 111.769C46.6068 110.703 45.0486 109.795 44.0996 109.045C43.1506 108.296 42.4185 107.458 41.9032 106.532C41.3996 105.607 41.148 104.587 41.1484 103.474C41.1491 101.576 41.8469 99.9582 43.2419 98.6218C44.6369 97.2855 46.3949 96.617 48.516 96.6164C49.2894 96.6162 50.0394 96.7097 50.7659 96.897C51.3166 97.0375 51.9845 97.301 52.7695 97.6875C53.5663 98.0622 54.1229 98.2496 54.4393 98.2495C54.744 98.2494 54.9842 98.1556 55.1601 97.968C55.3359 97.7805 55.5001 97.3293 55.6527 96.6144L56.1801 96.6142Z" fill="white"/>
<path d="M52.2318 86.5543L56.3425 82.0602L49.829 83.708L46.0096 79.0978L45.8856 84.6814L39.1634 86.363L45.8066 88.2402L45.6827 93.8238L49.7043 89.3284L56.1404 91.1657L52.2318 86.5543Z" fill="white"/>
</svg>
