<svg width="275" height="221" viewBox="0 0 275 221" fill="none" xmlns="http://www.w3.org/2000/svg">
<rect width="275" height="221" fill="white"/>
<path d="M60.2734 120.746L60.4023 126.043H59.9219C59.6953 124.715 59.1367 123.648 58.2461 122.844C57.3633 122.031 56.4062 121.625 55.375 121.625C54.5781 121.625 53.9453 121.84 53.4766 122.27C53.0156 122.691 52.7852 123.18 52.7852 123.734C52.7852 124.086 52.8672 124.398 53.0312 124.672C53.2578 125.039 53.6211 125.402 54.1211 125.762C54.4883 126.02 55.3359 126.477 56.6641 127.133C58.5234 128.047 59.7773 128.91 60.4258 129.723C61.0664 130.535 61.3867 131.465 61.3867 132.512C61.3867 133.84 60.8672 134.984 59.8281 135.945C58.7969 136.898 57.4844 137.375 55.8906 137.375C55.3906 137.375 54.918 137.324 54.4727 137.223C54.0273 137.121 53.4688 136.93 52.7969 136.648C52.4219 136.492 52.1133 136.414 51.8711 136.414C51.668 136.414 51.4531 136.492 51.2266 136.648C51 136.805 50.8164 137.043 50.6758 137.363H50.2422V131.363H50.6758C51.0195 133.051 51.6797 134.34 52.6562 135.23C53.6406 136.113 54.6992 136.555 55.832 136.555C56.707 136.555 57.4023 136.316 57.918 135.84C58.4414 135.363 58.7031 134.809 58.7031 134.176C58.7031 133.801 58.6016 133.438 58.3984 133.086C58.2031 132.734 57.9023 132.402 57.4961 132.09C57.0898 131.77 56.3711 131.355 55.3398 130.848C53.8945 130.137 52.8555 129.531 52.2227 129.031C51.5898 128.531 51.1016 127.973 50.7578 127.355C50.4219 126.738 50.2539 126.059 50.2539 125.316C50.2539 124.051 50.7188 122.973 51.6484 122.082C52.5781 121.191 53.75 120.746 55.1641 120.746C55.6797 120.746 56.1797 120.809 56.6641 120.934C57.0312 121.027 57.4766 121.203 58 121.461C58.5312 121.711 58.9023 121.836 59.1133 121.836C59.3164 121.836 59.4766 121.773 59.5938 121.648C59.7109 121.523 59.8203 121.223 59.9219 120.746H60.2734ZM73.7969 131.586L78.1094 121.109H84.5781V121.543H84.0625C83.5938 121.543 83.2188 121.625 82.9375 121.789C82.7422 121.898 82.5859 122.082 82.4688 122.34C82.3828 122.527 82.3398 123.016 82.3398 123.805V134.281C82.3398 135.094 82.3828 135.602 82.4688 135.805C82.5547 136.008 82.7305 136.188 82.9961 136.344C83.2617 136.492 83.6172 136.566 84.0625 136.566H84.5781V137H76.2812V136.566H76.7969C77.2656 136.566 77.6406 136.484 77.9219 136.32C78.1172 136.211 78.2734 136.023 78.3906 135.758C78.4766 135.57 78.5195 135.078 78.5195 134.281V122.504L72.4258 137H72.1445L65.957 122.609V133.801C65.957 134.582 65.9766 135.062 66.0156 135.242C66.1172 135.633 66.3359 135.953 66.6719 136.203C67.0156 136.445 67.5508 136.566 68.2773 136.566V137H62.8398V136.566H63.0039C63.3555 136.574 63.6836 136.52 63.9883 136.402C64.293 136.277 64.5234 136.113 64.6797 135.91C64.8359 135.707 64.957 135.422 65.043 135.055C65.0586 134.969 65.0664 134.57 65.0664 133.859V123.805C65.0664 123 65.0234 122.5 64.9375 122.305C64.8516 122.102 64.6758 121.926 64.4102 121.777C64.1445 121.621 63.7891 121.543 63.3438 121.543H62.8398V121.109H69.332L73.7969 131.586ZM95.0078 132.477H89.3945L88.7266 134.023C88.5078 134.539 88.3984 134.965 88.3984 135.301C88.3984 135.746 88.5781 136.074 88.9375 136.285C89.1484 136.41 89.668 136.504 90.4961 136.566V137H85.2109V136.566C85.7812 136.48 86.25 136.246 86.6172 135.863C86.9844 135.473 87.4375 134.672 87.9766 133.461L93.6602 120.781H93.8828L99.6133 133.812C100.16 135.047 100.609 135.824 100.961 136.145C101.227 136.387 101.602 136.527 102.086 136.566V137H94.3984V136.566H94.7148C95.332 136.566 95.7656 136.48 96.0156 136.309C96.1875 136.184 96.2734 136.004 96.2734 135.77C96.2734 135.629 96.25 135.484 96.2031 135.336C96.1875 135.266 96.0703 134.973 95.8516 134.457L95.0078 132.477ZM94.6094 131.609L92.2422 126.137L89.8047 131.609H94.6094ZM108.742 129.758V134.211C108.742 135.07 108.793 135.613 108.895 135.84C109.004 136.059 109.191 136.234 109.457 136.367C109.723 136.5 110.219 136.566 110.945 136.566V137H102.812V136.566C103.547 136.566 104.043 136.5 104.301 136.367C104.566 136.227 104.75 136.047 104.852 135.828C104.961 135.609 105.016 135.07 105.016 134.211V123.898C105.016 123.039 104.961 122.5 104.852 122.281C104.75 122.055 104.566 121.875 104.301 121.742C104.035 121.609 103.539 121.543 102.812 121.543V121.109H110.195C112.117 121.109 113.523 121.242 114.414 121.508C115.305 121.773 116.031 122.266 116.594 122.984C117.156 123.695 117.438 124.531 117.438 125.492C117.438 126.664 117.016 127.633 116.172 128.398C115.633 128.883 114.879 129.246 113.91 129.488L117.73 134.867C118.23 135.562 118.586 135.996 118.797 136.168C119.117 136.41 119.488 136.543 119.91 136.566V137H114.906L109.785 129.758H108.742ZM108.742 121.965V128.926H109.41C110.496 128.926 111.309 128.828 111.848 128.633C112.387 128.43 112.809 128.07 113.113 127.555C113.426 127.031 113.582 126.352 113.582 125.516C113.582 124.305 113.297 123.41 112.727 122.832C112.164 122.254 111.254 121.965 109.996 121.965H108.742ZM134.008 121.109V125.41H133.586C133.336 124.418 133.059 123.707 132.754 123.277C132.449 122.84 132.031 122.492 131.5 122.234C131.203 122.094 130.684 122.023 129.941 122.023H128.758V134.281C128.758 135.094 128.801 135.602 128.887 135.805C128.98 136.008 129.156 136.188 129.414 136.344C129.68 136.492 130.039 136.566 130.492 136.566H131.02V137H122.699V136.566H123.227C123.688 136.566 124.059 136.484 124.34 136.32C124.543 136.211 124.703 136.023 124.82 135.758C124.906 135.57 124.949 135.078 124.949 134.281V122.023H123.801C122.73 122.023 121.953 122.25 121.469 122.703C120.789 123.336 120.359 124.238 120.18 125.41H119.734V121.109H134.008ZM141.438 129.359V134.281C141.438 135.094 141.48 135.602 141.566 135.805C141.66 136.008 141.836 136.188 142.094 136.344C142.359 136.492 142.715 136.566 143.16 136.566H143.688V137H135.379V136.566H135.906C136.367 136.566 136.738 136.484 137.02 136.32C137.223 136.211 137.379 136.023 137.488 135.758C137.574 135.57 137.617 135.078 137.617 134.281V123.828C137.617 123.016 137.574 122.508 137.488 122.305C137.402 122.102 137.227 121.926 136.961 121.777C136.703 121.621 136.352 121.543 135.906 121.543H135.379V121.109H143.688V121.543H143.16C142.699 121.543 142.328 121.625 142.047 121.789C141.844 121.898 141.684 122.086 141.566 122.352C141.48 122.539 141.438 123.031 141.438 123.828V128.328H147.051V123.828C147.051 123.016 147.008 122.508 146.922 122.305C146.836 122.102 146.66 121.926 146.395 121.777C146.129 121.621 145.773 121.543 145.328 121.543H144.812V121.109H153.109V121.543H152.594C152.125 121.543 151.754 121.625 151.48 121.789C151.277 121.898 151.117 122.086 151 122.352C150.914 122.539 150.871 123.031 150.871 123.828V134.281C150.871 135.094 150.914 135.602 151 135.805C151.086 136.008 151.262 136.188 151.527 136.344C151.793 136.492 152.148 136.566 152.594 136.566H153.109V137H144.812V136.566H145.328C145.797 136.566 146.168 136.484 146.441 136.32C146.645 136.211 146.805 136.023 146.922 135.758C147.008 135.57 147.051 135.078 147.051 134.281V129.359H141.438ZM162.824 120.887C165.355 120.793 167.41 121.531 168.988 123.102C170.574 124.672 171.367 126.637 171.367 128.996C171.367 131.012 170.777 132.785 169.598 134.316C168.035 136.348 165.828 137.363 162.977 137.363C160.117 137.363 157.906 136.395 156.344 134.457C155.109 132.926 154.492 131.109 154.492 129.008C154.492 126.648 155.293 124.684 156.895 123.113C158.504 121.535 160.48 120.793 162.824 120.887ZM162.965 121.637C161.512 121.637 160.406 122.379 159.648 123.863C159.031 125.082 158.723 126.832 158.723 129.113C158.723 131.824 159.199 133.828 160.152 135.125C160.816 136.031 161.746 136.484 162.941 136.484C163.746 136.484 164.418 136.289 164.957 135.898C165.645 135.398 166.18 134.602 166.562 133.508C166.945 132.406 167.137 130.973 167.137 129.207C167.137 127.105 166.941 125.535 166.551 124.496C166.16 123.449 165.66 122.711 165.051 122.281C164.449 121.852 163.754 121.637 162.965 121.637ZM187.375 121.109V125.41H186.953C186.703 124.418 186.426 123.707 186.121 123.277C185.816 122.84 185.398 122.492 184.867 122.234C184.57 122.094 184.051 122.023 183.309 122.023H182.125V134.281C182.125 135.094 182.168 135.602 182.254 135.805C182.348 136.008 182.523 136.188 182.781 136.344C183.047 136.492 183.406 136.566 183.859 136.566H184.387V137H176.066V136.566H176.594C177.055 136.566 177.426 136.484 177.707 136.32C177.91 136.211 178.07 136.023 178.188 135.758C178.273 135.57 178.316 135.078 178.316 134.281V122.023H177.168C176.098 122.023 175.32 122.25 174.836 122.703C174.156 123.336 173.727 124.238 173.547 125.41H173.102V121.109H187.375ZM194.781 122.023V128.492H195.098C196.105 128.492 196.836 128.176 197.289 127.543C197.742 126.91 198.031 125.977 198.156 124.742H198.602V133.062H198.156C198.062 132.156 197.863 131.414 197.559 130.836C197.262 130.258 196.914 129.871 196.516 129.676C196.117 129.473 195.539 129.371 194.781 129.371V133.848C194.781 134.723 194.816 135.258 194.887 135.453C194.965 135.648 195.105 135.809 195.309 135.934C195.512 136.059 195.84 136.121 196.293 136.121H197.242C198.727 136.121 199.914 135.777 200.805 135.09C201.703 134.402 202.348 133.355 202.738 131.949H203.172L202.457 137H188.723V136.566H189.25C189.711 136.566 190.082 136.484 190.363 136.32C190.566 136.211 190.723 136.023 190.832 135.758C190.918 135.57 190.961 135.078 190.961 134.281V123.828C190.961 123.109 190.941 122.668 190.902 122.504C190.824 122.23 190.68 122.02 190.469 121.871C190.172 121.652 189.766 121.543 189.25 121.543H188.723V121.109H202.023V125.809H201.578C201.352 124.66 201.031 123.836 200.617 123.336C200.211 122.836 199.633 122.469 198.883 122.234C198.445 122.094 197.625 122.023 196.422 122.023H194.781ZM219.402 131.422L218.805 137H204.695V136.566H205.223C205.684 136.566 206.055 136.484 206.336 136.32C206.539 136.211 206.695 136.023 206.805 135.758C206.891 135.57 206.934 135.078 206.934 134.281V123.828C206.934 123.016 206.891 122.508 206.805 122.305C206.719 122.102 206.543 121.926 206.277 121.777C206.02 121.621 205.668 121.543 205.223 121.543H204.695V121.109H213.168V121.543H212.477C212.016 121.543 211.645 121.625 211.363 121.789C211.16 121.898 211 122.086 210.883 122.352C210.797 122.539 210.754 123.031 210.754 123.828V133.953C210.754 134.766 210.801 135.285 210.895 135.512C210.988 135.73 211.172 135.895 211.445 136.004C211.641 136.074 212.113 136.109 212.863 136.109H214.188C215.031 136.109 215.734 135.961 216.297 135.664C216.859 135.367 217.344 134.898 217.75 134.258C218.164 133.617 218.555 132.672 218.922 131.422H219.402Z" fill="#03528A"/>
<path d="M160 94.425C160 95.432 159.382 96.3065 158.439 96.757L135.178 108.523C134.707 108.841 134.118 109 133.5 109C132.882 109 132.293 108.841 131.822 108.523L108.561 96.757C108.089 96.5337 107.693 96.1983 107.418 95.7872C107.143 95.3761 106.999 94.9049 107 94.425V70.575C107 69.568 107.618 68.6935 108.561 68.243L131.822 56.477C132.293 56.159 132.882 56 133.5 56C134.118 56 134.707 56.159 135.178 56.477L158.439 68.243C159.382 68.6935 160 69.568 160 70.575V94.425Z" fill="#03528A"/>
<path d="M141.18 82.6142L141.371 90.5595L140.65 90.5597C140.311 88.5676 139.473 86.9682 138.138 85.7616C136.814 84.5432 135.379 83.9342 133.832 83.9347C132.637 83.935 131.687 84.2576 130.984 84.9023C130.292 85.5353 129.946 86.2678 129.946 87.0999C129.946 87.6272 130.069 88.0959 130.315 88.506C130.654 89.0567 131.199 89.6015 131.949 90.1403C132.5 90.5269 133.771 91.212 135.763 92.1958C138.551 93.5661 140.432 94.8605 141.404 96.079C142.364 97.2975 142.844 98.6919 142.844 100.262C142.843 102.254 142.063 103.971 140.504 105.413C138.957 106.843 136.988 107.559 134.597 107.559C133.847 107.56 133.138 107.484 132.47 107.332C131.802 107.179 130.965 106.893 129.957 106.471C129.395 106.237 128.932 106.12 128.568 106.12C128.264 106.12 127.941 106.237 127.602 106.472C127.262 106.706 126.986 107.064 126.775 107.544L126.125 107.544L126.128 98.5443L126.778 98.5441C127.293 101.075 128.282 103.009 129.747 104.344C131.223 105.668 132.811 106.33 134.51 106.329C135.822 106.329 136.865 105.971 137.639 105.256C138.424 104.541 138.817 103.709 138.818 102.759C138.818 102.197 138.666 101.652 138.361 101.125C138.068 100.598 137.617 100.1 137.008 99.631C136.399 99.1507 135.321 98.53 133.774 97.7687C131.607 96.7029 130.049 95.7951 129.1 95.0454C128.151 94.2957 127.419 93.458 126.903 92.5324C126.4 91.6067 126.148 90.5873 126.148 89.474C126.149 87.5755 126.847 85.9582 128.242 84.6218C129.637 83.2855 131.395 82.617 133.516 82.6164C134.289 82.6162 135.039 82.7097 135.766 82.897C136.317 83.0375 136.985 83.301 137.77 83.6875C138.566 84.0622 139.123 84.2496 139.439 84.2495C139.744 84.2494 139.984 84.1556 140.16 83.968C140.336 83.7805 140.5 83.3293 140.653 82.6144L141.18 82.6142Z" fill="white"/>
<path d="M137.232 72.5543L141.343 68.0602L134.829 69.708L131.01 65.0978L130.886 70.6814L124.163 72.363L130.807 74.2402L130.683 79.8238L134.704 75.3284L141.14 77.1657L137.232 72.5543Z" fill="white"/>
</svg>
