<svg width="365" height="122" viewBox="0 0 365 122" fill="none" xmlns="http://www.w3.org/2000/svg">
<g id="App logo one">
<rect width="365" height="122" fill="#03528A"/>
<g id="Group 3">
<path id="SMARTHOTEL" d="M111.733 50.1149L111.917 57.6764H111.231C110.907 55.7804 110.11 54.2581 108.839 53.1094C107.578 51.9495 106.212 51.3696 104.74 51.3696C103.602 51.3696 102.699 51.6763 102.03 52.2897C101.372 52.8919 101.043 53.5889 101.043 54.3808C101.043 54.8826 101.16 55.3287 101.394 55.7191C101.718 56.2433 102.236 56.7619 102.95 57.2749C103.474 57.6429 104.684 58.2953 106.58 59.2321C109.235 60.537 111.025 61.7694 111.95 62.9292C112.865 64.0891 113.322 65.4163 113.322 66.9107C113.322 68.8066 112.58 70.4405 111.097 71.8123C109.625 73.1729 107.751 73.8532 105.476 73.8532C104.762 73.8532 104.088 73.7807 103.452 73.6357C102.816 73.4907 102.019 73.2175 101.06 72.816C100.524 72.593 100.084 72.4814 99.7381 72.4814C99.4482 72.4814 99.1415 72.593 98.818 72.816C98.4946 73.0391 98.2325 73.3792 98.0318 73.8365H97.4128V65.2713H98.0318C98.5225 67.6802 99.4649 69.5204 100.859 70.7918C102.264 72.0521 103.775 72.6822 105.392 72.6822C106.642 72.6822 107.634 72.342 108.37 71.6617C109.117 70.9814 109.491 70.1896 109.491 69.2862C109.491 68.7509 109.346 68.2323 109.056 67.7304C108.777 67.2286 108.348 66.7546 107.768 66.3085C107.188 65.8512 106.162 65.2601 104.69 64.5352C102.627 63.5203 101.143 62.656 100.24 61.9422C99.3366 61.2285 98.6396 60.4311 98.1489 59.55C97.6693 58.6689 97.4295 57.6987 97.4295 56.6392C97.4295 54.8325 98.0931 53.2934 99.4203 52.022C100.747 50.7506 102.42 50.1149 104.439 50.1149C105.175 50.1149 105.889 50.2041 106.58 50.3826C107.104 50.5164 107.74 50.7673 108.487 51.1354C109.246 51.4923 109.775 51.6707 110.077 51.6707C110.367 51.6707 110.595 51.5815 110.762 51.403C110.93 51.2246 111.086 50.7952 111.231 50.1149H111.733ZM131.038 65.5891L137.194 50.6335H146.428V51.2525H145.692C145.023 51.2525 144.488 51.3696 144.086 51.6038C143.808 51.7599 143.585 52.022 143.417 52.39C143.295 52.6577 143.233 53.3547 143.233 54.4811V69.4368C143.233 70.5966 143.295 71.3216 143.417 71.6115C143.54 71.9015 143.791 72.158 144.17 72.3811C144.549 72.593 145.057 72.6989 145.692 72.6989H146.428V73.3179H134.584V72.6989H135.32C135.99 72.6989 136.525 72.5818 136.926 72.3476C137.205 72.1915 137.428 71.9238 137.596 71.5446C137.718 71.2769 137.78 70.5743 137.78 69.4368V52.6242L129.081 73.3179H128.679L119.846 52.7748V68.7509C119.846 69.8661 119.874 70.552 119.93 70.8085C120.075 71.3662 120.387 71.8234 120.867 72.1803C121.357 72.526 122.121 72.6989 123.159 72.6989V73.3179H115.396V72.6989H115.631C116.132 72.7101 116.601 72.632 117.036 72.4647C117.471 72.2863 117.8 72.0521 118.023 71.7621C118.246 71.4721 118.419 71.065 118.541 70.5409C118.564 70.4182 118.575 69.8494 118.575 68.8345V54.4811C118.575 53.3324 118.514 52.6187 118.391 52.3398C118.268 52.0499 118.017 51.7989 117.638 51.587C117.259 51.364 116.751 51.2525 116.116 51.2525H115.396V50.6335H124.664L131.038 65.5891ZM161.317 66.8605H153.304L152.35 69.0687C152.038 69.8048 151.882 70.4126 151.882 70.8922C151.882 71.5279 152.139 71.9963 152.652 72.2974C152.953 72.4759 153.694 72.6097 154.877 72.6989V73.3179H147.332V72.6989C148.146 72.5762 148.815 72.2416 149.339 71.6952C149.863 71.1375 150.51 69.9944 151.28 68.2657L159.393 50.1651H159.711L167.892 68.7676C168.672 70.5297 169.314 71.6394 169.815 72.0967C170.195 72.4424 170.73 72.6431 171.421 72.6989V73.3179H160.447V72.6989H160.899C161.78 72.6989 162.399 72.5762 162.756 72.3309C163.001 72.1524 163.124 71.8959 163.124 71.5613C163.124 71.3606 163.09 71.1543 163.023 70.9424C163.001 70.842 162.834 70.4238 162.522 69.6877L161.317 66.8605ZM160.748 65.6226L157.369 57.8102L153.89 65.6226H160.748ZM180.923 62.9794V69.3364C180.923 70.5632 180.996 71.3383 181.141 71.6617C181.297 71.974 181.565 72.2249 181.944 72.4145C182.323 72.6041 183.031 72.6989 184.068 72.6989V73.3179H172.459V72.6989C173.507 72.6989 174.215 72.6041 174.583 72.4145C174.962 72.2138 175.224 71.9573 175.369 71.645C175.526 71.3327 175.604 70.5632 175.604 69.3364V54.615C175.604 53.3882 175.526 52.6187 175.369 52.3064C175.224 51.983 174.962 51.7265 174.583 51.5369C174.204 51.3473 173.496 51.2525 172.459 51.2525V50.6335H182.998C185.741 50.6335 187.749 50.8231 189.02 51.2023C190.292 51.5815 191.329 52.2841 192.132 53.3101C192.935 54.325 193.336 55.5183 193.336 56.8901C193.336 58.563 192.734 59.9459 191.53 61.0389C190.76 61.7303 189.684 62.2489 188.301 62.5947L193.754 70.2732C194.468 71.2658 194.976 71.8848 195.277 72.1301C195.734 72.4759 196.264 72.6654 196.866 72.6989V73.3179H189.723L182.412 62.9794H180.923ZM180.923 51.8547V61.7917H181.877C183.427 61.7917 184.587 61.6523 185.357 61.3734C186.126 61.0835 186.728 60.5705 187.163 59.8344C187.609 59.0872 187.832 58.1169 187.832 56.9236C187.832 55.1949 187.425 53.9179 186.611 53.0926C185.808 52.2674 184.509 51.8547 182.713 51.8547H180.923ZM216.991 50.6335V56.773H216.389C216.032 55.3566 215.636 54.3417 215.201 53.7283C214.766 53.1038 214.169 52.6075 213.411 52.2395C212.987 52.0387 212.245 51.9384 211.186 51.9384H209.496V69.4368C209.496 70.5966 209.558 71.3216 209.68 71.6115C209.814 71.9015 210.065 72.158 210.433 72.3811C210.812 72.593 211.325 72.6989 211.972 72.6989H212.725V73.3179H200.848V72.6989H201.6C202.258 72.6989 202.788 72.5818 203.19 72.3476C203.48 72.1915 203.708 71.9238 203.875 71.5446C203.998 71.2769 204.059 70.5743 204.059 69.4368V51.9384H202.42C200.892 51.9384 199.782 52.2618 199.091 52.9086C198.121 53.812 197.507 55.1001 197.251 56.773H196.615V50.6335H216.991ZM227.597 62.4106V69.4368C227.597 70.5966 227.658 71.3216 227.781 71.6115C227.915 71.9015 228.166 72.158 228.534 72.3811C228.913 72.593 229.42 72.6989 230.056 72.6989H230.809V73.3179H218.948V72.6989H219.701C220.359 72.6989 220.889 72.5818 221.29 72.3476C221.58 72.1915 221.803 71.9238 221.959 71.5446C222.082 71.2769 222.143 70.5743 222.143 69.4368V54.5146C222.143 53.3547 222.082 52.6298 221.959 52.3398C221.837 52.0499 221.586 51.7989 221.207 51.587C220.839 51.364 220.337 51.2525 219.701 51.2525H218.948V50.6335H230.809V51.2525H230.056C229.398 51.2525 228.868 51.3696 228.467 51.6038C228.177 51.7599 227.948 52.0276 227.781 52.4068C227.658 52.6744 227.597 53.377 227.597 54.5146V60.9385H235.61V54.5146C235.61 53.3547 235.549 52.6298 235.426 52.3398C235.303 52.0499 235.052 51.7989 234.673 51.587C234.294 51.364 233.787 51.2525 233.151 51.2525H232.415V50.6335H244.259V51.2525H243.523C242.854 51.2525 242.324 51.3696 241.934 51.6038C241.644 51.7599 241.415 52.0276 241.248 52.4068C241.125 52.6744 241.064 53.377 241.064 54.5146V69.4368C241.064 70.5966 241.125 71.3216 241.248 71.6115C241.37 71.9015 241.621 72.158 242.001 72.3811C242.38 72.593 242.887 72.6989 243.523 72.6989H244.259V73.3179H232.415V72.6989H233.151C233.82 72.6989 234.35 72.5818 234.74 72.3476C235.03 72.1915 235.259 71.9238 235.426 71.5446C235.549 71.2769 235.61 70.5743 235.61 69.4368V62.4106H227.597ZM258.127 50.3157C261.741 50.1818 264.674 51.2357 266.927 53.4774C269.191 55.7191 270.323 58.524 270.323 61.892C270.323 64.7694 269.481 67.301 267.796 69.487C265.566 72.3866 262.415 73.8365 258.345 73.8365C254.263 73.8365 251.107 72.4535 248.876 69.6877C247.114 67.5018 246.233 64.9088 246.233 61.9088C246.233 58.5407 247.376 55.7358 249.662 53.4941C251.96 51.2413 254.781 50.1818 258.127 50.3157ZM258.328 51.3863C256.254 51.3863 254.675 52.4458 253.594 54.5648C252.713 56.3046 252.272 58.8028 252.272 62.0593C252.272 65.9293 252.952 68.7899 254.313 70.6412C255.261 71.9349 256.588 72.5818 258.294 72.5818C259.443 72.5818 260.402 72.303 261.172 71.7454C262.153 71.0316 262.917 69.894 263.464 68.3327C264.01 66.7601 264.283 64.7136 264.283 62.1932C264.283 59.1931 264.005 56.9514 263.447 55.4682C262.889 53.9737 262.176 52.9198 261.306 52.3064C260.447 51.693 259.454 51.3863 258.328 51.3863ZM293.174 50.6335V56.773H292.572C292.215 55.3566 291.819 54.3417 291.384 53.7283C290.949 53.1038 290.353 52.6075 289.594 52.2395C289.17 52.0387 288.429 51.9384 287.369 51.9384H285.68V69.4368C285.68 70.5966 285.741 71.3216 285.864 71.6115C285.998 71.9015 286.248 72.158 286.616 72.3811C286.996 72.593 287.509 72.6989 288.156 72.6989H288.908V73.3179H277.031V72.6989H277.784C278.442 72.6989 278.971 72.5818 279.373 72.3476C279.663 72.1915 279.891 71.9238 280.059 71.5446C280.181 71.2769 280.243 70.5743 280.243 69.4368V51.9384H278.603C277.075 51.9384 275.966 52.2618 275.274 52.9086C274.304 53.812 273.691 55.1001 273.434 56.773H272.798V50.6335H293.174ZM303.747 51.9384V61.1727H304.199C305.637 61.1727 306.68 60.721 307.327 59.8177C307.974 58.9143 308.386 57.5816 308.565 55.8195H309.2V67.697H308.565C308.431 66.4033 308.147 65.3438 307.712 64.5185C307.288 63.6932 306.792 63.1411 306.223 62.8623C305.654 62.5724 304.829 62.4274 303.747 62.4274V68.8178C303.747 70.0669 303.797 70.8308 303.897 71.1097C304.009 71.3885 304.21 71.6171 304.5 71.7955C304.79 71.974 305.258 72.0632 305.905 72.0632H307.26C309.379 72.0632 311.074 71.5725 312.346 70.5911C313.628 69.6096 314.548 68.1152 315.106 66.1077H315.725L314.704 73.3179H295.098V72.6989H295.851C296.509 72.6989 297.039 72.5818 297.44 72.3476C297.73 72.1915 297.953 71.9238 298.109 71.5446C298.232 71.2769 298.293 70.5743 298.293 69.4368V54.5146C298.293 53.4886 298.265 52.8584 298.21 52.6242C298.098 52.2339 297.892 51.9328 297.591 51.7209C297.167 51.4086 296.587 51.2525 295.851 51.2525H295.098V50.6335H314.085V57.3418H313.45C313.126 55.7024 312.669 54.5258 312.078 53.812C311.498 53.0982 310.673 52.5741 309.602 52.2395C308.977 52.0387 307.806 51.9384 306.089 51.9384H303.747ZM338.894 65.3549L338.041 73.3179H317.9V72.6989H318.652C319.31 72.6989 319.84 72.5818 320.242 72.3476C320.532 72.1915 320.755 71.9238 320.911 71.5446C321.033 71.2769 321.095 70.5743 321.095 69.4368V54.5146C321.095 53.3547 321.033 52.6298 320.911 52.3398C320.788 52.0499 320.537 51.7989 320.158 51.587C319.79 51.364 319.288 51.2525 318.652 51.2525H317.9V50.6335H329.995V51.2525H329.008C328.349 51.2525 327.82 51.3696 327.418 51.6038C327.128 51.7599 326.9 52.0276 326.732 52.4068C326.61 52.6744 326.548 53.377 326.548 54.5146V68.9684C326.548 70.1282 326.615 70.8699 326.749 71.1933C326.883 71.5056 327.145 71.7398 327.535 71.8959C327.814 71.9963 328.489 72.0465 329.56 72.0465H331.45C332.654 72.0465 333.658 71.8346 334.461 71.4108C335.264 70.987 335.956 70.3178 336.536 69.4033C337.127 68.4888 337.684 67.1393 338.208 65.3549H338.894Z" fill="white"/>
<path id="Vector" d="M88.89 76.8368C88.89 78.3001 88.0279 79.5709 86.7143 80.2255L54.2849 97.3231C53.6281 97.7852 52.8071 98.0163 51.945 98.0163C51.083 98.0163 50.262 97.7852 49.6052 97.3231L17.1757 80.2255C16.5175 79.9011 15.9668 79.4137 15.5832 78.8163C15.1997 78.2188 14.998 77.5342 15 76.8368V42.1795C15 40.7162 15.8621 39.4454 17.1757 38.7908L49.6052 21.6931C50.262 21.231 51.083 21 51.945 21C52.8071 21 53.6281 21.231 54.2849 21.6931L86.7143 38.7908C88.0279 39.4454 88.89 40.7162 88.89 42.1795V76.8368Z" fill="white"/>
<path id="S" d="M62.8809 63.4367L63.1532 74.7788L62.1244 74.7791C61.6402 71.9353 60.4448 69.6522 58.5383 67.9297C56.6485 66.1904 54.5995 65.3211 52.3913 65.3218C50.685 65.3223 49.3298 65.7827 48.3257 66.7031C47.3384 67.6068 46.8446 68.6525 46.8442 69.8402C46.8439 70.593 47.0194 71.2621 47.3705 71.8476C47.8553 72.6337 48.633 73.4113 49.7034 74.1805C50.4894 74.7324 52.3042 75.7105 55.1477 77.1148C59.1285 79.0709 61.8128 80.9187 63.2008 82.6581C64.572 84.3975 65.2572 86.388 65.2564 88.6297C65.2555 91.4736 64.1422 93.9247 61.9166 95.983C59.7077 98.0246 56.8969 99.0459 53.4842 99.0469C52.4136 99.0472 51.4015 98.9388 50.448 98.7216C49.4946 98.5044 48.2986 98.0949 46.8601 97.4931C46.0572 97.1587 45.3965 96.9917 44.8779 96.9918C44.4429 96.9919 43.9828 97.1594 43.4976 97.4941C43.0123 97.8288 42.619 98.3392 42.3177 99.0251L41.3892 99.0254L41.3935 86.1776L42.322 86.1773C43.0568 89.7906 44.4695 92.5504 46.56 94.4569C48.6672 96.3466 50.9336 97.2911 53.3593 97.2904C55.233 97.2898 56.722 96.7792 57.8265 95.7584C58.9476 94.7376 59.5084 93.5497 59.5089 92.1946C59.5092 91.3916 59.2919 90.6138 58.8572 89.8611C58.4393 89.1085 57.7954 88.3977 56.9258 87.7288C56.0561 87.0432 54.5173 86.157 52.3095 85.0703C49.2151 83.5489 46.9906 82.253 45.6359 81.1828C44.2812 80.1125 43.2361 78.9167 42.5005 77.5954C41.7816 76.274 41.4224 74.8187 41.4229 73.2295C41.4238 70.5194 42.4199 68.2105 44.4113 66.3028C46.4027 64.3951 48.9123 63.4408 51.9402 63.4399C53.0443 63.4396 54.115 63.5731 55.1521 63.8405C55.9382 64.041 56.8917 64.4171 58.0123 64.9688C59.1497 65.5038 59.9442 65.7712 60.3959 65.7711C60.8309 65.771 61.1739 65.637 61.4249 65.3693C61.6759 65.1016 61.9103 64.4574 62.1281 63.4369L62.8809 63.4367Z" fill="#03528A"/>
<path id="Vector_2" d="M57.1477 45.0556L62.8786 38.5251L53.7979 40.9196L48.4729 34.2204L48.3002 42.3341L38.9284 44.7777L48.19 47.5055L48.0173 55.6193L53.6239 49.0868L62.5969 51.7567L57.1477 45.0556Z" fill="#03528A"/>
</g>
</g>
</svg>
