<svg width="275" height="221" viewBox="0 0 275 221" fill="none" xmlns="http://www.w3.org/2000/svg">
<rect width="275" height="221" fill="#03528A"/>
<path d="M69.2734 126.746L69.4023 132.043H68.9219C68.6953 130.715 68.1367 129.648 67.2461 128.844C66.3633 128.031 65.4062 127.625 64.375 127.625C63.5781 127.625 62.9453 127.84 62.4766 128.27C62.0156 128.691 61.7852 129.18 61.7852 129.734C61.7852 130.086 61.8672 130.398 62.0312 130.672C62.2578 131.039 62.6211 131.402 63.1211 131.762C63.4883 132.02 64.3359 132.477 65.6641 133.133C67.5234 134.047 68.7773 134.91 69.4258 135.723C70.0664 136.535 70.3867 137.465 70.3867 138.512C70.3867 139.84 69.8672 140.984 68.8281 141.945C67.7969 142.898 66.4844 143.375 64.8906 143.375C64.3906 143.375 63.918 143.324 63.4727 143.223C63.0273 143.121 62.4688 142.93 61.7969 142.648C61.4219 142.492 61.1133 142.414 60.8711 142.414C60.668 142.414 60.4531 142.492 60.2266 142.648C60 142.805 59.8164 143.043 59.6758 143.363H59.2422V137.363H59.6758C60.0195 139.051 60.6797 140.34 61.6562 141.23C62.6406 142.113 63.6992 142.555 64.832 142.555C65.707 142.555 66.4023 142.316 66.918 141.84C67.4414 141.363 67.7031 140.809 67.7031 140.176C67.7031 139.801 67.6016 139.438 67.3984 139.086C67.2031 138.734 66.9023 138.402 66.4961 138.09C66.0898 137.77 65.3711 137.355 64.3398 136.848C62.8945 136.137 61.8555 135.531 61.2227 135.031C60.5898 134.531 60.1016 133.973 59.7578 133.355C59.4219 132.738 59.2539 132.059 59.2539 131.316C59.2539 130.051 59.7188 128.973 60.6484 128.082C61.5781 127.191 62.75 126.746 64.1641 126.746C64.6797 126.746 65.1797 126.809 65.6641 126.934C66.0312 127.027 66.4766 127.203 67 127.461C67.5312 127.711 67.9023 127.836 68.1133 127.836C68.3164 127.836 68.4766 127.773 68.5938 127.648C68.7109 127.523 68.8203 127.223 68.9219 126.746H69.2734ZM82.7969 137.586L87.1094 127.109H93.5781V127.543H93.0625C92.5938 127.543 92.2188 127.625 91.9375 127.789C91.7422 127.898 91.5859 128.082 91.4688 128.34C91.3828 128.527 91.3398 129.016 91.3398 129.805V140.281C91.3398 141.094 91.3828 141.602 91.4688 141.805C91.5547 142.008 91.7305 142.188 91.9961 142.344C92.2617 142.492 92.6172 142.566 93.0625 142.566H93.5781V143H85.2812V142.566H85.7969C86.2656 142.566 86.6406 142.484 86.9219 142.32C87.1172 142.211 87.2734 142.023 87.3906 141.758C87.4766 141.57 87.5195 141.078 87.5195 140.281V128.504L81.4258 143H81.1445L74.957 128.609V139.801C74.957 140.582 74.9766 141.062 75.0156 141.242C75.1172 141.633 75.3359 141.953 75.6719 142.203C76.0156 142.445 76.5508 142.566 77.2773 142.566V143H71.8398V142.566H72.0039C72.3555 142.574 72.6836 142.52 72.9883 142.402C73.293 142.277 73.5234 142.113 73.6797 141.91C73.8359 141.707 73.957 141.422 74.043 141.055C74.0586 140.969 74.0664 140.57 74.0664 139.859V129.805C74.0664 129 74.0234 128.5 73.9375 128.305C73.8516 128.102 73.6758 127.926 73.4102 127.777C73.1445 127.621 72.7891 127.543 72.3438 127.543H71.8398V127.109H78.332L82.7969 137.586ZM104.008 138.477H98.3945L97.7266 140.023C97.5078 140.539 97.3984 140.965 97.3984 141.301C97.3984 141.746 97.5781 142.074 97.9375 142.285C98.1484 142.41 98.668 142.504 99.4961 142.566V143H94.2109V142.566C94.7812 142.48 95.25 142.246 95.6172 141.863C95.9844 141.473 96.4375 140.672 96.9766 139.461L102.66 126.781H102.883L108.613 139.812C109.16 141.047 109.609 141.824 109.961 142.145C110.227 142.387 110.602 142.527 111.086 142.566V143H103.398V142.566H103.715C104.332 142.566 104.766 142.48 105.016 142.309C105.188 142.184 105.273 142.004 105.273 141.77C105.273 141.629 105.25 141.484 105.203 141.336C105.188 141.266 105.07 140.973 104.852 140.457L104.008 138.477ZM103.609 137.609L101.242 132.137L98.8047 137.609H103.609ZM117.742 135.758V140.211C117.742 141.07 117.793 141.613 117.895 141.84C118.004 142.059 118.191 142.234 118.457 142.367C118.723 142.5 119.219 142.566 119.945 142.566V143H111.812V142.566C112.547 142.566 113.043 142.5 113.301 142.367C113.566 142.227 113.75 142.047 113.852 141.828C113.961 141.609 114.016 141.07 114.016 140.211V129.898C114.016 129.039 113.961 128.5 113.852 128.281C113.75 128.055 113.566 127.875 113.301 127.742C113.035 127.609 112.539 127.543 111.812 127.543V127.109H119.195C121.117 127.109 122.523 127.242 123.414 127.508C124.305 127.773 125.031 128.266 125.594 128.984C126.156 129.695 126.438 130.531 126.438 131.492C126.438 132.664 126.016 133.633 125.172 134.398C124.633 134.883 123.879 135.246 122.91 135.488L126.73 140.867C127.23 141.562 127.586 141.996 127.797 142.168C128.117 142.41 128.488 142.543 128.91 142.566V143H123.906L118.785 135.758H117.742ZM117.742 127.965V134.926H118.41C119.496 134.926 120.309 134.828 120.848 134.633C121.387 134.43 121.809 134.07 122.113 133.555C122.426 133.031 122.582 132.352 122.582 131.516C122.582 130.305 122.297 129.41 121.727 128.832C121.164 128.254 120.254 127.965 118.996 127.965H117.742ZM143.008 127.109V131.41H142.586C142.336 130.418 142.059 129.707 141.754 129.277C141.449 128.84 141.031 128.492 140.5 128.234C140.203 128.094 139.684 128.023 138.941 128.023H137.758V140.281C137.758 141.094 137.801 141.602 137.887 141.805C137.98 142.008 138.156 142.188 138.414 142.344C138.68 142.492 139.039 142.566 139.492 142.566H140.02V143H131.699V142.566H132.227C132.688 142.566 133.059 142.484 133.34 142.32C133.543 142.211 133.703 142.023 133.82 141.758C133.906 141.57 133.949 141.078 133.949 140.281V128.023H132.801C131.73 128.023 130.953 128.25 130.469 128.703C129.789 129.336 129.359 130.238 129.18 131.41H128.734V127.109H143.008ZM150.438 135.359V140.281C150.438 141.094 150.48 141.602 150.566 141.805C150.66 142.008 150.836 142.188 151.094 142.344C151.359 142.492 151.715 142.566 152.16 142.566H152.688V143H144.379V142.566H144.906C145.367 142.566 145.738 142.484 146.02 142.32C146.223 142.211 146.379 142.023 146.488 141.758C146.574 141.57 146.617 141.078 146.617 140.281V129.828C146.617 129.016 146.574 128.508 146.488 128.305C146.402 128.102 146.227 127.926 145.961 127.777C145.703 127.621 145.352 127.543 144.906 127.543H144.379V127.109H152.688V127.543H152.16C151.699 127.543 151.328 127.625 151.047 127.789C150.844 127.898 150.684 128.086 150.566 128.352C150.48 128.539 150.438 129.031 150.438 129.828V134.328H156.051V129.828C156.051 129.016 156.008 128.508 155.922 128.305C155.836 128.102 155.66 127.926 155.395 127.777C155.129 127.621 154.773 127.543 154.328 127.543H153.812V127.109H162.109V127.543H161.594C161.125 127.543 160.754 127.625 160.48 127.789C160.277 127.898 160.117 128.086 160 128.352C159.914 128.539 159.871 129.031 159.871 129.828V140.281C159.871 141.094 159.914 141.602 160 141.805C160.086 142.008 160.262 142.188 160.527 142.344C160.793 142.492 161.148 142.566 161.594 142.566H162.109V143H153.812V142.566H154.328C154.797 142.566 155.168 142.484 155.441 142.32C155.645 142.211 155.805 142.023 155.922 141.758C156.008 141.57 156.051 141.078 156.051 140.281V135.359H150.438ZM171.824 126.887C174.355 126.793 176.41 127.531 177.988 129.102C179.574 130.672 180.367 132.637 180.367 134.996C180.367 137.012 179.777 138.785 178.598 140.316C177.035 142.348 174.828 143.363 171.977 143.363C169.117 143.363 166.906 142.395 165.344 140.457C164.109 138.926 163.492 137.109 163.492 135.008C163.492 132.648 164.293 130.684 165.895 129.113C167.504 127.535 169.48 126.793 171.824 126.887ZM171.965 127.637C170.512 127.637 169.406 128.379 168.648 129.863C168.031 131.082 167.723 132.832 167.723 135.113C167.723 137.824 168.199 139.828 169.152 141.125C169.816 142.031 170.746 142.484 171.941 142.484C172.746 142.484 173.418 142.289 173.957 141.898C174.645 141.398 175.18 140.602 175.562 139.508C175.945 138.406 176.137 136.973 176.137 135.207C176.137 133.105 175.941 131.535 175.551 130.496C175.16 129.449 174.66 128.711 174.051 128.281C173.449 127.852 172.754 127.637 171.965 127.637ZM196.375 127.109V131.41H195.953C195.703 130.418 195.426 129.707 195.121 129.277C194.816 128.84 194.398 128.492 193.867 128.234C193.57 128.094 193.051 128.023 192.309 128.023H191.125V140.281C191.125 141.094 191.168 141.602 191.254 141.805C191.348 142.008 191.523 142.188 191.781 142.344C192.047 142.492 192.406 142.566 192.859 142.566H193.387V143H185.066V142.566H185.594C186.055 142.566 186.426 142.484 186.707 142.32C186.91 142.211 187.07 142.023 187.188 141.758C187.273 141.57 187.316 141.078 187.316 140.281V128.023H186.168C185.098 128.023 184.32 128.25 183.836 128.703C183.156 129.336 182.727 130.238 182.547 131.41H182.102V127.109H196.375ZM203.781 128.023V134.492H204.098C205.105 134.492 205.836 134.176 206.289 133.543C206.742 132.91 207.031 131.977 207.156 130.742H207.602V139.062H207.156C207.062 138.156 206.863 137.414 206.559 136.836C206.262 136.258 205.914 135.871 205.516 135.676C205.117 135.473 204.539 135.371 203.781 135.371V139.848C203.781 140.723 203.816 141.258 203.887 141.453C203.965 141.648 204.105 141.809 204.309 141.934C204.512 142.059 204.84 142.121 205.293 142.121H206.242C207.727 142.121 208.914 141.777 209.805 141.09C210.703 140.402 211.348 139.355 211.738 137.949H212.172L211.457 143H197.723V142.566H198.25C198.711 142.566 199.082 142.484 199.363 142.32C199.566 142.211 199.723 142.023 199.832 141.758C199.918 141.57 199.961 141.078 199.961 140.281V129.828C199.961 129.109 199.941 128.668 199.902 128.504C199.824 128.23 199.68 128.02 199.469 127.871C199.172 127.652 198.766 127.543 198.25 127.543H197.723V127.109H211.023V131.809H210.578C210.352 130.66 210.031 129.836 209.617 129.336C209.211 128.836 208.633 128.469 207.883 128.234C207.445 128.094 206.625 128.023 205.422 128.023H203.781ZM228.402 137.422L227.805 143H213.695V142.566H214.223C214.684 142.566 215.055 142.484 215.336 142.32C215.539 142.211 215.695 142.023 215.805 141.758C215.891 141.57 215.934 141.078 215.934 140.281V129.828C215.934 129.016 215.891 128.508 215.805 128.305C215.719 128.102 215.543 127.926 215.277 127.777C215.02 127.621 214.668 127.543 214.223 127.543H213.695V127.109H222.168V127.543H221.477C221.016 127.543 220.645 127.625 220.363 127.789C220.16 127.898 220 128.086 219.883 128.352C219.797 128.539 219.754 129.031 219.754 129.828V139.953C219.754 140.766 219.801 141.285 219.895 141.512C219.988 141.73 220.172 141.895 220.445 142.004C220.641 142.074 221.113 142.109 221.863 142.109H223.188C224.031 142.109 224.734 141.961 225.297 141.664C225.859 141.367 226.344 140.898 226.75 140.258C227.164 139.617 227.555 138.672 227.922 137.422H228.402Z" fill="white"/>
<path d="M162 104.425C162 105.432 161.382 106.306 160.439 106.757L137.178 118.523C136.707 118.841 136.118 119 135.5 119C134.882 119 134.293 118.841 133.822 118.523L110.561 106.757C110.089 106.534 109.693 106.198 109.418 105.787C109.143 105.376 108.999 104.905 109 104.425V80.575C109 79.568 109.618 78.6935 110.561 78.243L133.822 66.477C134.293 66.159 134.882 66 135.5 66C136.118 66 136.707 66.159 137.178 66.477L160.439 78.243C161.382 78.6935 162 79.568 162 80.575V104.425Z" fill="white"/>
<path d="M143.179 94.6235L143.37 102.569L142.649 102.569C142.31 100.577 141.473 98.9775 140.137 97.7709C138.813 96.5525 137.378 95.9435 135.831 95.944C134.636 95.9443 133.687 96.2669 132.983 96.9116C132.292 97.5446 131.946 98.2771 131.945 99.1092C131.945 99.6365 132.068 100.105 132.314 100.515C132.654 101.066 133.198 101.611 133.948 102.15C134.499 102.536 135.77 103.221 137.762 104.205C140.551 105.575 142.431 106.87 143.403 108.088C144.364 109.307 144.844 110.701 144.843 112.271C144.842 114.264 144.063 115.981 142.503 117.423C140.956 118.853 138.987 119.568 136.597 119.569C135.847 119.569 135.138 119.493 134.47 119.341C133.802 119.189 132.964 118.902 131.956 118.48C131.394 118.246 130.931 118.129 130.568 118.129C130.263 118.129 129.941 118.246 129.601 118.481C129.261 118.715 128.985 119.073 128.774 119.553L128.124 119.554L128.127 110.554L128.777 110.553C129.292 113.085 130.282 115.018 131.746 116.353C133.222 117.677 134.81 118.339 136.509 118.338C137.822 118.338 138.865 117.98 139.638 117.265C140.424 116.55 140.817 115.718 140.817 114.769C140.817 114.206 140.665 113.661 140.36 113.134C140.068 112.607 139.617 112.109 139.007 111.64C138.398 111.16 137.32 110.539 135.774 109.778C133.606 108.712 132.048 107.804 131.099 107.055C130.15 106.305 129.418 105.467 128.902 104.542C128.399 103.616 128.147 102.597 128.148 101.483C128.148 99.5849 128.846 97.9675 130.241 96.6311C131.636 95.2948 133.394 94.6263 135.515 94.6257C136.289 94.6255 137.039 94.719 137.765 94.9063C138.316 95.0468 138.984 95.3103 139.769 95.6968C140.566 96.0715 141.122 96.2589 141.439 96.2588C141.743 96.2587 141.983 96.1649 142.159 95.9773C142.335 95.7898 142.499 95.3386 142.652 94.6237L143.179 94.6235Z" fill="#03528A"/>
<path d="M139.232 82.5543L143.343 78.0602L136.829 79.708L133.01 75.0978L132.886 80.6814L126.163 82.363L132.807 84.2402L132.683 89.8238L136.704 85.3284L143.14 87.1657L139.232 82.5543Z" fill="#03528A"/>
</svg>
