<svg width="83" height="19" viewBox="0 0 83 19" fill="none" xmlns="http://www.w3.org/2000/svg">
<path d="M22.9338 12.2013C22.4689 12.2013 22.018 12.1397 21.5811 12.0164C21.1498 11.8876 20.8026 11.7224 20.5393 11.5207L21.0014 10.4957C21.2535 10.6806 21.5531 10.829 21.9004 10.941C22.2477 11.0531 22.5949 11.1091 22.9422 11.1091C23.3287 11.1091 23.6143 11.0531 23.7992 10.941C23.984 10.8234 24.0764 10.6694 24.0764 10.4789C24.0764 10.3389 24.0204 10.2241 23.9084 10.1345C23.802 10.0393 23.662 9.96364 23.4883 9.90762C23.3203 9.85161 23.0906 9.79 22.7994 9.72279C22.3513 9.61637 21.9844 9.50994 21.6988 9.40352C21.4131 9.2971 21.1667 9.12627 20.9594 8.89102C20.7578 8.65577 20.6569 8.34211 20.6569 7.95003C20.6569 7.60836 20.7494 7.3003 20.9342 7.02585C21.119 6.74579 21.3963 6.52455 21.766 6.36211C22.1412 6.19968 22.5977 6.11846 23.1354 6.11846C23.5107 6.11846 23.8776 6.16327 24.2361 6.25289C24.5945 6.34251 24.9082 6.47134 25.1771 6.63937L24.757 7.67278C24.2137 7.36471 23.6704 7.21068 23.127 7.21068C22.7462 7.21068 22.4633 7.2723 22.2785 7.39552C22.0992 7.51875 22.0096 7.68118 22.0096 7.88282C22.0096 8.08446 22.1132 8.23569 22.3205 8.33651C22.5333 8.43173 22.8554 8.52695 23.2867 8.62217C23.7348 8.72859 24.1016 8.83501 24.3873 8.94143C24.673 9.04785 24.9166 9.21589 25.1182 9.44553C25.3255 9.67518 25.4291 9.98604 25.4291 10.3781C25.4291 10.7142 25.3339 11.0222 25.1434 11.3023C24.9586 11.5768 24.6786 11.7952 24.3033 11.9576C23.928 12.1201 23.4715 12.2013 22.9338 12.2013ZM31.711 12.1005L31.7026 8.57176L29.9719 11.4787H29.3585L27.6362 8.64737V12.1005H26.3591V6.21928H27.485L29.6862 9.87402L31.8538 6.21928H32.9713L32.9881 12.1005H31.711ZM38.2566 10.8402H35.526L35.0051 12.1005H33.6104L36.2318 6.21928H37.576L40.2058 12.1005H38.7775L38.2566 10.8402ZM37.8281 9.8068L36.8955 7.55515L35.9629 9.8068H37.8281ZM44.5631 12.1005L43.4289 10.4621H43.3616H42.177V12.1005H40.8159V6.21928H43.3616C43.8825 6.21928 44.3334 6.3061 44.7143 6.47974C45.1008 6.65337 45.3977 6.89982 45.6049 7.21909C45.8121 7.53835 45.9158 7.91643 45.9158 8.35331C45.9158 8.7902 45.8093 9.16828 45.5965 9.48754C45.3893 9.8012 45.0924 10.0421 44.7059 10.2101L46.025 12.1005H44.5631ZM44.5379 8.35331C44.5379 8.02285 44.4315 7.7708 44.2186 7.59716C44.0058 7.41793 43.6949 7.32831 43.286 7.32831H42.177V9.37832H43.286C43.6949 9.37832 44.0058 9.2887 44.2186 9.10946C44.4315 8.93023 44.5379 8.67818 44.5379 8.35331ZM48.1303 7.32831H46.2483V6.21928H51.3734V7.32831H49.4914V12.1005H48.1303V7.32831ZM57.4996 6.21928V12.1005H56.1385V9.68918H53.4668V12.1005H52.1057V6.21928H53.4668V8.53815H56.1385V6.21928H57.4996ZM61.7392 12.2013C61.1287 12.2013 60.577 12.0697 60.0841 11.8064C59.5968 11.5432 59.2131 11.1819 58.9331 10.7226C58.6586 10.2577 58.5214 9.73679 58.5214 9.15987C58.5214 8.58296 58.6586 8.06485 58.9331 7.60556C59.2131 7.14067 59.5968 6.7766 60.0841 6.51334C60.577 6.25009 61.1287 6.11846 61.7392 6.11846C62.3497 6.11846 62.8986 6.25009 63.3859 6.51334C63.8732 6.7766 64.2569 7.14067 64.537 7.60556C64.817 8.06485 64.9571 8.58296 64.9571 9.15987C64.9571 9.73679 64.817 10.2577 64.537 10.7226C64.2569 11.1819 63.8732 11.5432 63.3859 11.8064C62.8986 12.0697 62.3497 12.2013 61.7392 12.2013ZM61.7392 11.0419C62.0865 11.0419 62.4001 10.9634 62.6802 10.8066C62.9603 10.6442 63.1787 10.4201 63.3355 10.1345C63.498 9.84881 63.5792 9.52395 63.5792 9.15987C63.5792 8.7958 63.498 8.47094 63.3355 8.18528C63.1787 7.89962 62.9603 7.67838 62.6802 7.52155C62.4001 7.35911 62.0865 7.2779 61.7392 7.2779C61.3919 7.2779 61.0783 7.35911 60.7982 7.52155C60.5182 7.67838 60.2969 7.89962 60.1345 8.18528C59.9777 8.47094 59.8992 8.7958 59.8992 9.15987C59.8992 9.52395 59.9777 9.84881 60.1345 10.1345C60.2969 10.4201 60.5182 10.6442 60.7982 10.8066C61.0783 10.9634 61.3919 11.0419 61.7392 11.0419ZM67.1162 7.32831H65.2342V6.21928H70.3592V7.32831H68.4772V12.1005H67.1162V7.32831ZM75.6452 11.0082V12.1005H71.0915V6.21928H75.536V7.3115H72.4442V8.58856H75.1747V9.64717H72.4442V11.0082H75.6452ZM76.7282 6.21928H78.0893V10.9914H81.0383V12.1005H76.7282V6.21928Z" fill="#03528A"/>
<path d="M18.5537 13.4514C18.5537 13.804 18.3373 14.1101 18.0074 14.2678L9.86439 18.3867C9.69947 18.4981 9.49332 18.5537 9.27686 18.5537C9.0604 18.5537 8.85425 18.4981 8.68933 18.3867L0.546308 14.2678C0.381056 14.1897 0.242761 14.0722 0.146448 13.9283C0.0501342 13.7844 -0.000514526 13.6195 3.94085e-06 13.4514V5.10227C3.94085e-06 4.74975 0.216464 4.44361 0.546308 4.28591L8.68933 0.166984C8.85425 0.0556612 9.0604 0 9.27686 0C9.49332 0 9.69947 0.0556612 9.86439 0.166984L18.0074 4.28591C18.3373 4.44361 18.5537 4.74975 18.5537 5.10227V13.4514Z" fill="#03528A"/>
<path d="M9.18776 18.9651C8.49042 18.9653 7.81411 18.8731 7.15885 18.6884C6.51198 18.4954 5.99117 18.2477 5.59639 17.9453L6.29006 16.4076C6.66804 16.6848 7.11745 16.9073 7.6383 17.0752C8.15915 17.2431 8.68002 17.3269 9.20093 17.3268C9.78064 17.3266 10.2092 17.2425 10.4865 17.0744C10.7638 16.8979 10.9025 16.6668 10.9026 16.3811C10.9027 16.1711 10.8187 15.9989 10.6507 15.8645C10.4911 15.7217 10.2811 15.6083 10.0207 15.5244C9.76869 15.4405 9.42426 15.3481 8.9874 15.2474C8.31532 15.088 7.76507 14.9285 7.33664 14.769C6.90821 14.6095 6.53862 14.3534 6.22788 14.0006C5.92554 13.6478 5.77447 13.1773 5.77468 12.5892C5.77486 12.0767 5.91364 11.6146 6.19104 11.2028C6.46844 10.7827 6.88444 10.4507 7.43904 10.2069C8.00203 9.96306 8.68681 9.84104 9.49337 9.84081C10.0563 9.84065 10.6066 9.90771 11.1442 10.042C11.6819 10.1763 12.1523 10.3694 12.5555 10.6213L11.9249 12.1716C11.1101 11.7097 10.2952 11.4789 9.4802 11.4791C8.90889 11.4793 8.48457 11.5718 8.20725 11.7568C7.93834 11.9417 7.80382 12.1854 7.80372 12.4878C7.80362 12.7903 7.95897 13.0171 8.26978 13.1682C8.58899 13.311 9.07204 13.4537 9.71892 13.5963C10.391 13.7557 10.9413 13.9152 11.3697 14.0747C11.7981 14.2342 12.1635 14.4862 12.4658 14.8306C12.7766 15.1749 12.9319 15.6412 12.9317 16.2293C12.9315 16.7334 12.7885 17.1955 12.5027 17.6157C12.2253 18.0275 11.8051 18.3553 11.2421 18.5991C10.6791 18.8429 9.99432 18.9649 9.18776 18.9651Z" fill="white"/>
<path d="M10.5833 5.79517L12.0223 4.22192L9.74217 4.79877L8.40509 3.18489L8.3617 5.13955L6.00846 5.72822L8.33405 6.38537L8.29066 8.34002L9.6985 6.76631L11.9516 7.40951L10.5833 5.79517Z" fill="white"/>
</svg>
